<svg xmlns="http://www.w3.org/2000/svg" xmlns:svg="http://www.w3.org/2000/svg" id="svg4874" width="96" height="96" version="1.1" viewBox="0 0 96 96"><metadata id="metadata4879"/><g id="layer1" transform="translate(67.857146,-78.50504)"><g id="g4845" transform="matrix(0,-1,-1,0,373.50506,516.50504)" style="display:inline"><g id="g4778" transform="matrix(-0.9996045,0,0,1,575.94296,-611.00001)"><g id="g4780" transform="matrix(-1,0,0,1,575.99999,611)" style="display:inline"><rect style="color:#000;display:inline;overflow:visible;visibility:visible;fill:none;stroke:none;stroke-width:4;marker:none;enable-background:accumulate" id="rect4782" width="96.038" height="96" x="-438.002" y="345.362" transform="scale(-1,1)"/><path style="color:#000;display:inline;overflow:visible;visibility:visible;opacity:1;fill:none;fill-opacity:1;fill-rule:nonzero;stroke:#000009;stroke-width:7.25369453;stroke-linecap:butt;stroke-linejoin:miter;stroke-miterlimit:4;stroke-dasharray:none;stroke-dashoffset:0;stroke-opacity:1;marker:none;enable-background:accumulate" id="path5662" d="m 409.35611,393.36222 c 0,21.44038 -19.37259,32.16054 -19.37259,32.16054 0,0 -19.3727,-10.72016 -19.3727,-32.16054 0,-21.44035 19.3727,-32.16055 19.3727,-32.16055 0,0 19.37259,10.7202 19.37259,32.16055 z"/><ellipse style="color:#000;display:inline;overflow:visible;visibility:visible;opacity:1;fill:#000;fill-opacity:1;fill-rule:nonzero;stroke:none;stroke-width:7.25369549;stroke-linecap:butt;stroke-linejoin:miter;stroke-miterlimit:4;stroke-dasharray:none;stroke-dashoffset:0;stroke-opacity:1;marker:none;enable-background:accumulate" id="path4242" cx="-393.362" cy="-389.983" rx="11.785" ry="11.79" transform="matrix(0,-1,-1,0,0,0)"/></g></g></g></g></svg>