<svg xmlns="http://www.w3.org/2000/svg" xmlns:svg="http://www.w3.org/2000/svg" id="svg4874" width="96" height="96" version="1.1" viewBox="0 0 96 96"><defs id="defs4876"><clipPath id="clipPath16" clipPathUnits="userSpaceOnUse"><path id="path18" d="m 0,595.28 841.89,0 L 841.89,0 0,0 0,595.28 Z"/></clipPath></defs><metadata id="metadata4879"/><g id="layer1" transform="translate(67.857146,-78.50504)"><path style="display:inline;fill:#000;fill-opacity:1;fill-rule:nonzero;stroke:none;stroke-width:.99980223" id="path4265-0-4" d="m -33.72353,79.504994 c 4.1449,5.244835 8.128,10.541559 11.7914,15.938634 4.0757,6.002382 7.7257,11.827522 10.9536,17.470392 2.9783,5.20717 5.2206,9.64125 7.0003,13.58994 -1.7798,3.9493 -4.0213,8.38558 -7.0003,13.59409 -3.2278,5.64272 -6.8778,11.46698 -10.9536,17.4704 -3.6627,5.39607 -7.6466,10.69172 -11.7914,15.93654 v -7.93597 c 2.4002,-3.14973 4.7681,-6.3781 7.0752,-9.75115 2.9172,-4.26308 5.6557,-8.62569 8.2194,-13.08561 2.6011,-4.52644 5.7064,-10.7466 7.7151,-15.00291 v -0.002 l 0.5752,-1.22124 -0.5752,-1.22124 v -0.002 c -2.0087,-4.2573 -5.1138,-10.47711 -7.7151,-15.0029 -2.5637,-4.45999 -5.3023,-8.82189 -8.2194,-13.085605 -2.307,-3.372085 -4.6749,-6.601318 -7.0752,-9.751161 v -7.93806 z"/><rect style="color:#000;display:inline;overflow:visible;visibility:visible;fill:none;stroke:none;stroke-width:3.99920893;marker:none;enable-background:accumulate" id="rect4782-01" width="96" height="96" x="78.505" y="-67.857" transform="matrix(0,1,1,0,0,0)"/></g></svg>