<svg xmlns="http://www.w3.org/2000/svg" xmlns:svg="http://www.w3.org/2000/svg" id="svg2" width="215.33" height="312.507" version="1.1"><defs id="defs4"><linearGradient id="SVGID_1_" x1="369.026" x2="441.687" y1="171.884" y2="262.581" gradientUnits="userSpaceOnUse"><stop style="stop-color:#7cc099" id="stop46" offset=".13"/><stop style="stop-color:#6fb594" id="stop48" offset=".379"/><stop style="stop-color:#4e9688" id="stop50" offset=".835"/><stop style="stop-color:#408a83" id="stop52" offset="1"/></linearGradient><linearGradient id="SVGID_2_" x1="936.139" x2="918.562" y1="154.453" y2="154.453" gradientTransform="matrix(0.9669,0.2553,-0.2553,0.9669,-399.6603,-163.1002)" gradientUnits="userSpaceOnUse"><stop style="stop-color:#dbe6e0" id="stop61" offset="0"/><stop style="stop-color:#bcded3" id="stop63" offset="1"/></linearGradient><linearGradient id="SVGID_3_" x1="451.016" x2="442.738" y1="201.949" y2="243.378" gradientUnits="userSpaceOnUse"><stop style="stop-color:#7cc099" id="stop72" offset="0"/><stop style="stop-color:#78bc98" id="stop74" offset=".257"/><stop style="stop-color:#6cb193" id="stop76" offset=".516"/><stop style="stop-color:#589f8c" id="stop78" offset=".777"/><stop style="stop-color:#408a83" id="stop80" offset="1"/></linearGradient><linearGradient id="SVGID_4_" x1="457.624" x2="457.476" y1="234.572" y2="234.572" gradientUnits="userSpaceOnUse"><stop style="stop-color:#dbe6e0" id="stop87" offset="0"/><stop style="stop-color:#bcded3" id="stop89" offset="1"/></linearGradient><linearGradient id="SVGID_5_" x1="467.882" x2="457.624" y1="223.493" y2="223.493" gradientUnits="userSpaceOnUse"><stop style="stop-color:#dbe6e0" id="stop96" offset="0"/><stop style="stop-color:#bcded3" id="stop98" offset="1"/></linearGradient><linearGradient id="SVGID_6_" x1="457.476" x2="452.437" y1="235.823" y2="235.823" gradientUnits="userSpaceOnUse"><stop style="stop-color:#dbe6e0" id="stop105" offset="0"/><stop style="stop-color:#bcded3" id="stop107" offset="1"/></linearGradient><linearGradient id="SVGID_7_" x1="452.192" x2="460.475" y1="227.279" y2="227.279" gradientUnits="userSpaceOnUse"><stop style="stop-color:#6aa583" id="stop112" offset="0"/><stop style="stop-color:#4c9e96" id="stop114" offset="1"/></linearGradient><linearGradient id="SVGID_8_" x1="473.171" x2="455.235" y1="268.904" y2="283.954" gradientTransform="matrix(0.9997,0.0227,-0.0227,0.9997,-36.4014,-7.9207)" gradientUnits="userSpaceOnUse"><stop style="stop-color:#7cc099" id="stop119" offset="0"/><stop style="stop-color:#57baae" id="stop121" offset="1"/></linearGradient><linearGradient id="SVGID_9_" x1="447.131" x2="470.952" y1="274.662" y2="274.662" gradientTransform="matrix(0.9997,0.0227,-0.0227,0.9997,-36.4014,-7.9207)" gradientUnits="userSpaceOnUse"><stop style="stop-color:#7cc099" id="stop126" offset="0"/><stop style="stop-color:#76ba97" id="stop128" offset=".233"/><stop style="stop-color:#65ab90" id="stop130" offset=".548"/><stop style="stop-color:#489186" id="stop132" offset=".911"/><stop style="stop-color:#408a83" id="stop134" offset="1"/></linearGradient><linearGradient id="SVGID_10_" x1="415.215" x2="422.051" y1="260.938" y2="252.792" gradientUnits="userSpaceOnUse"><stop style="stop-color:#4c9e96" id="stop141" offset="0"/><stop style="stop-color:#489790" id="stop143" offset=".486"/><stop style="stop-color:#408a83" id="stop145" offset="1"/></linearGradient><linearGradient id="SVGID_11_" x1="425.606" x2="393.748" y1="203.167" y2="239.431" gradientUnits="userSpaceOnUse"><stop style="stop-color:#7cc099" id="stop152" offset="0"/><stop style="stop-color:#77bf9c" id="stop154" offset=".318"/><stop style="stop-color:#6abda3" id="stop156" offset=".676"/><stop style="stop-color:#57baae" id="stop158" offset="1"/></linearGradient></defs><metadata id="metadata7"/><g id="layer1" transform="translate(-143.41788,-652.76609)"><g id="g41" transform="matrix(2.2038606,0,0,2.2038606,-672.50331,283.61944)"><g id="g43"><linearGradient id="linearGradient3548" x1="369.026" x2="441.687" y1="171.884" y2="262.581" gradientUnits="userSpaceOnUse"><stop style="stop-color:#7cc099" id="stop3550" offset=".13"/><stop style="stop-color:#6fb594" id="stop3552" offset=".379"/><stop style="stop-color:#4e9688" id="stop3554" offset=".835"/><stop style="stop-color:#408a83" id="stop3556" offset="1"/></linearGradient><path style="fill:url(#SVGID_1_)" id="path54" d="m 433.7,212.6 c -5.9,-10.1 -19,-17.9 -27.5,-21 -8.5,-3.2 -18,-10.1 -18,-10.1 -7.5,-5 -9.7,-9 -13.7,-14 -1.2,2.6 -2.2,5.8 -3,9.6 1.8,3.1 8.7,13.4 28.1,21.5 1.7,0.7 6.9,2.8 7,2.9 l 6.5,2.6 -6.7,-1.9 c -0.2,-0.1 -5.5,-1.6 -7.3,-2.2 -17.3,-6.3 -25,-15.1 -28,-19.9 -0.8,4.9 -1.1,10.6 -0.7,16.5 5.2,4.7 14,11 26.9,15.4 0.9,0.3 3.6,1.3 3.6,1.3 l 3.4,1.2 -3.5,-0.5 c -0.1,0 -3,-0.4 -4,-0.6 -12.1,-2.9 -20.5,-8.4 -26.1,-13.3 0.5,4.3 1.4,8.6 2.8,13 0.3,1 0.7,2.1 1.1,3 4.4,2 9.6,3.9 15.4,5.2 1.1,0.2 4.3,1.1 4.3,1.1 l 3.8,1 -4,-0.2 c -0.1,0 -3.4,-0.2 -4.5,-0.4 -5.1,-0.7 -9.8,-2 -13.9,-3.6 6.6,13.7 18.8,21.4 35.2,27.5 18.7,7 19.4,25 19.4,25 0,0 5.1,-3.8 9.6,-18.4 5.1,-16.2 -0.3,-30.6 -6.2,-40.7 z"/></g><g id="g56"><g id="g58"><linearGradient id="linearGradient3561" x1="936.139" x2="918.562" y1="154.453" y2="154.453" gradientTransform="matrix(0.9669,0.2553,-0.2553,0.9669,-399.6603,-163.1002)" gradientUnits="userSpaceOnUse"><stop style="stop-color:#dbe6e0" id="stop3563" offset="0"/><stop style="stop-color:#bcded3" id="stop3565" offset="1"/></linearGradient><path style="fill:url(#SVGID_2_)" id="path65" d="m 458.6,233.8 c 4.9,-3.6 6.9,-7.8 8.5,-12.5 0.7,-2.1 1.3,-5 0.3,-8.1 -0.8,-2.5 -6.5,-6.2 -11.2,-4.7 -5.1,1.7 -6.1,8.1 -6.5,10.9 -0.6,4.3 0.4,10.9 2.8,17.6 -0.1,0 2.1,-0.2 6.1,-3.2 z"/></g><g id="g67"><g id="g69"><linearGradient id="linearGradient3570" x1="451.016" x2="442.738" y1="201.949" y2="243.378" gradientUnits="userSpaceOnUse"><stop style="stop-color:#7cc099" id="stop3572" offset="0"/><stop style="stop-color:#78bc98" id="stop3574" offset=".257"/><stop style="stop-color:#6cb193" id="stop3576" offset=".516"/><stop style="stop-color:#589f8c" id="stop3578" offset=".777"/><stop style="stop-color:#408a83" id="stop3580" offset="1"/></linearGradient><path style="fill:url(#SVGID_3_)" id="path82" d="m 449.7,219.4 c 0.4,-2.8 1.4,-9.2 6.5,-10.9 4.2,-1.4 9.3,1.5 10.8,3.9 -1.5,-3.9 -5.6,-6.6 -9,-8.3 -4.8,-2.5 -10.8,-2.9 -15.7,-1.7 -4.6,1.1 -7,3.6 -10.9,6.9 0.8,1.1 1.6,2.2 2.2,3.3 4.6,8 9,18.6 8.2,30.6 3,-5 9.7,-6.1 10.6,-6.2 -2.4,-6.6 -3.4,-13.3 -2.7,-17.6 z"/></g><g id="g84"><linearGradient id="linearGradient3584" x1="457.624" x2="457.476" y1="234.572" y2="234.572" gradientUnits="userSpaceOnUse"><stop style="stop-color:#dbe6e0" id="stop3586" offset="0"/><stop style="stop-color:#bcded3" id="stop3588" offset="1"/></linearGradient><path style="fill:url(#SVGID_4_)" id="path91" d="m 457.6,234.5 c -0.1,0 -0.1,0.1 -0.1,0.1 0,0 0.1,0 0.1,-0.1 z"/></g><g id="g93"><linearGradient id="linearGradient3592" x1="467.882" x2="457.624" y1="223.493" y2="223.493" gradientUnits="userSpaceOnUse"><stop style="stop-color:#dbe6e0" id="stop3594" offset="0"/><stop style="stop-color:#bcded3" id="stop3596" offset="1"/></linearGradient><path style="fill:url(#SVGID_5_)" id="path100" d="m 467.4,213.2 c -0.1,-0.2 -0.2,-0.5 -0.4,-0.8 0.7,1.7 0.8,3.7 0.1,5.9 -1.5,4.9 -1.8,7.1 -6.1,12.9 -1,1.3 -2.2,2.4 -3.4,3.2 0.3,-0.2 0.6,-0.4 1,-0.7 4.9,-3.6 6.9,-7.8 8.5,-12.5 0.7,-2 1.2,-4.9 0.3,-8 z"/></g><g id="g102"><linearGradient id="linearGradient3600" x1="457.476" x2="452.437" y1="235.823" y2="235.823" gradientUnits="userSpaceOnUse"><stop style="stop-color:#dbe6e0" id="stop3602" offset="0"/><stop style="stop-color:#bcded3" id="stop3604" offset="1"/></linearGradient><path style="fill:url(#SVGID_6_)" id="path109" d="m 452.4,237 c 0,0 0,0 0,0 0,0 1.8,-0.2 5,-2.4 -2.5,1.7 -4.9,2.4 -4.9,2.4 0,0 0,0 -0.1,0 z"/></g></g><linearGradient id="linearGradient3607" x1="452.192" x2="460.475" y1="227.279" y2="227.279" gradientUnits="userSpaceOnUse"><stop style="stop-color:#6aa583" id="stop3609" offset="0"/><stop style="stop-color:#4c9e96" id="stop3611" offset="1"/></linearGradient><path style="fill:url(#SVGID_7_)" id="path116" d="m 458.2,217.6 c -1,-0.3 -2,0 -2.8,0.6 -0.2,0.3 -0.3,0.6 -0.4,0.9 -0.4,1.6 0.5,3.3 2.2,3.7 0.7,0.2 1.3,0.1 1.9,-0.1 -0.9,6.9 -5.9,12.4 -6.9,13.5 0.1,0.4 0.2,0.5 0.2,0.7 0.3,0 0.4,-0.1 0.9,-0.2 1.7,-1.9 6.7,-7.9 7,-15.5 0.5,-1.5 -0.5,-3.1 -2.1,-3.6 z"/></g><linearGradient id="linearGradient3614" x1="473.171" x2="455.235" y1="268.904" y2="283.954" gradientTransform="matrix(0.9997,0.0227,-0.0227,0.9997,-36.4014,-7.9207)" gradientUnits="userSpaceOnUse"><stop style="stop-color:#7cc099" id="stop3616" offset="0"/><stop style="stop-color:#57baae" id="stop3618" offset="1"/></linearGradient><path style="fill:url(#SVGID_8_)" id="path123" d="m 405.5,261.4 c 1.5,12.7 7.5,31.7 27.8,47.9 0,0 10.1,-15.4 0.4,-32.5 -9.7,-17.1 -23.8,-22.7 -28.8,-24.5 -0.2,3.6 0.4,6.8 0.6,9.1 z"/><linearGradient id="linearGradient3621" x1="447.131" x2="470.952" y1="274.662" y2="274.662" gradientTransform="matrix(0.9997,0.0227,-0.0227,0.9997,-36.4014,-7.9207)" gradientUnits="userSpaceOnUse"><stop style="stop-color:#7cc099" id="stop3623" offset="0"/><stop style="stop-color:#76ba97" id="stop3625" offset=".233"/><stop style="stop-color:#65ab90" id="stop3627" offset=".548"/><stop style="stop-color:#489186" id="stop3629" offset=".911"/><stop style="stop-color:#408a83" id="stop3631" offset="1"/></linearGradient><path style="fill:url(#SVGID_9_)" id="path136" d="m 423.7,272.8 c -5.7,-10 -12.8,-16.8 -18.8,-20.5 -0.1,3.2 0.4,7 0.6,9.1 1.2,10.8 5.8,26.1 19.6,40.4 2.4,-5.5 5.5,-16.8 -1.4,-29 z"/><g id="g138"><linearGradient id="linearGradient3635" x1="415.215" x2="422.051" y1="260.938" y2="252.792" gradientUnits="userSpaceOnUse"><stop style="stop-color:#4c9e96" id="stop3637" offset="0"/><stop style="stop-color:#489790" id="stop3639" offset=".486"/><stop style="stop-color:#408a83" id="stop3641" offset="1"/></linearGradient><path style="fill:url(#SVGID_10_)" id="path147" d="m 411.9,246.7 c -2,-0.8 -4.9,-1.6 -6.8,-2.4 -0.3,2.5 -0.2,5.1 -0.2,8.1 4.4,1.6 16.1,6.2 25.5,19.3 0,-0.1 0,-0.2 0,-0.3 -0.2,-2.3 -1.1,-18.3 -18.5,-24.7 z"/></g><g id="g149"><linearGradient id="linearGradient3645" x1="425.606" x2="393.748" y1="203.167" y2="239.431" gradientUnits="userSpaceOnUse"><stop style="stop-color:#7cc099" id="stop3647" offset="0"/><stop style="stop-color:#77bf9c" id="stop3649" offset=".318"/><stop style="stop-color:#6abda3" id="stop3651" offset=".676"/><stop style="stop-color:#57baae" id="stop3653" offset="1"/></linearGradient><path style="fill:url(#SVGID_11_)" id="path160" d="m 433.7,212.6 c -5.9,-10.1 -19,-17.9 -27.5,-21 -8.5,-3.2 -18,-10.1 -18,-10.1 -2.1,-1.4 -3.8,-2.7 -5.2,-4 -0.4,3.6 -0.6,7.5 -0.4,11.6 4.2,3.2 9.7,6.5 16.9,9.5 1.7,0.7 6.9,2.8 7,2.9 l 6.5,2.6 -6.7,-1.9 c -0.2,-0.1 -5.5,-1.6 -7.3,-2.2 -6.8,-2.5 -12.1,-5.3 -16.2,-8.2 0.4,5 1.3,10.1 2.9,15.2 3.4,1.8 7.2,3.4 11.6,4.9 0.9,0.3 3.6,1.3 3.6,1.3 l 3.4,1.2 -3.5,-0.5 c -0.1,0 -3,-0.4 -4,-0.6 -3.7,-0.9 -7,-2 -10,-3.3 1.9,4.8 4.4,8.8 7.4,12.3 0.1,0 0.1,0 0.1,0 l 3.8,1 -3.2,-0.2 c 6.9,7.7 16.3,13.3 26.3,21.3 13.5,10.8 9.2,27.2 9.2,27.2 0,0 0.8,-0.6 1.5,-1.5 1.8,-2.1 5.1,-7 8.1,-16.9 5,-16.1 -0.4,-30.5 -6.3,-40.6 z"/></g></g></g></svg>